<?xml version="1.0" encoding="UTF-8" standalone="no"?>
<svg width="84px" height="110px" viewBox="0 0 84 110" version="1.1" xmlns="http://www.w3.org/2000/svg" xmlns:xlink="http://www.w3.org/1999/xlink">
    <!-- Generator: Sketch 3.7.1 (28215) - http://www.bohemiancoding.com/sketch -->
    <title>touch_logotype@2x</title>
    <desc>Created with Sketch.</desc>
    <defs></defs>
    <g id="Page-2" stroke="none" stroke-width="1" fill="none" fill-rule="evenodd">
        <g id="180---iPhone-6-Plus" transform="translate(-48.000000, -25.000000)" fill="#3B3D40">
            <g id="touch_logotype" transform="translate(48.000000, 25.000000)">
                <path d="M0.626142623,69.7802283 C0.626142623,63.7292987 1.71138614,58.2357739 3.88190574,53.2994893 C6.05242534,48.3632046 8.99052365,44.1435407 12.6962888,40.6403709 C16.402054,37.1372012 20.7959668,34.4302469 25.878159,32.5194271 C30.9603512,30.6086072 36.3600995,29.6532116 42.0775657,29.6532116 C47.795032,29.6532116 53.1947802,30.6086072 58.2769725,32.5194271 C63.3591647,34.4302469 67.7530775,37.1372012 71.4588427,40.6403709 C75.1646078,44.1435407 78.1027061,48.3632046 80.2732257,53.2994893 C82.4437453,58.2357739 83.5289888,63.7292987 83.5289888,69.7802283 C83.5289888,75.8311578 82.4437453,81.3246826 80.2732257,86.2609672 C78.1027061,91.1972519 75.1646078,95.4169158 71.4588427,98.9200856 C67.7530775,102.423255 63.3591647,105.13021 58.2769725,107.041029 C53.1947802,108.951849 47.795032,109.907245 42.0775657,109.907245 C36.3600995,109.907245 30.9603512,108.951849 25.878159,107.041029 C20.7959668,105.13021 16.402054,102.423255 12.6962888,98.9200856 C8.99052365,95.4169158 6.05242534,91.1972519 3.88190574,86.2609672 C1.71138614,81.3246826 0.626142623,75.8311578 0.626142623,69.7802283 L0.626142623,69.7802283 Z M19.6842682,69.7802283 C19.6842682,72.7526147 20.1871859,75.6188015 21.1930365,78.3788747 C22.198887,81.1389478 23.6811708,83.5805144 25.6399324,85.7036476 C27.598694,87.8267808 29.9544665,89.5252618 32.7073207,90.7991417 C35.4601748,92.0730217 38.5835586,92.7099521 42.0775657,92.7099521 C45.5715729,92.7099521 48.6949567,92.0730217 51.4478108,90.7991417 C54.2006649,89.5252618 56.5564375,87.8267808 58.515199,85.7036476 C60.4739606,83.5805144 61.9562445,81.1389478 62.962095,78.3788747 C63.9679456,75.6188015 64.4708633,72.7526147 64.4708633,69.7802283 C64.4708633,66.8078418 63.9679456,63.941655 62.962095,61.1815818 C61.9562445,58.4215087 60.4739606,55.9799421 58.515199,53.8568089 C56.5564375,51.7336758 54.2006649,50.0351947 51.4478108,48.7613148 C48.6949567,47.4874348 45.5715729,46.8505044 42.0775657,46.8505044 C38.5835586,46.8505044 35.4601748,47.4874348 32.7073207,48.7613148 C29.9544665,50.0351947 27.598694,51.7336758 25.6399324,53.8568089 C23.6811708,55.9799421 22.198887,58.4215087 21.1930365,61.1815818 C20.1871859,63.941655 19.6842682,66.8078418 19.6842682,69.7802283 L19.6842682,69.7802283 Z" id="Touch"></path>
                <polygon id="Rectangle-1" points="51.0774643 6.687853 74.9001213 6.687853 74.9001213 23.0870925 51.0774643 19.3139862"></polygon>
            </g>
        </g>
    </g>
</svg>